<svg xmlns="http://www.w3.org/2000/svg"
shape-rendering="geometricPrecision"
width="4000" height="4000" viewBox="0 0 748 748">
  <metadata>null</metadata>

<path d="
M 34.338 437.84
C 39.198 437.844 44.055 437.935 48.915 437.909
C 53.837 437.883 58.726 437.732 62.939 440.694
C 71.446 446.673 69.194 461.432 59.223 464.489
C 59.586 466.03 61.193 467.58 62.053 468.926
C 64.243 472.35 66.26 476.739 69.126 479.623
C 68.432 479.946 67.27 479.668 66.51 479.668
C 64.295 479.669 62.006 479.835 59.801 479.697
C 56.535 475.45 52.937 470.644 50.573 465.832
C 47.955 465.857 44.908 465.411 42.36 466.001
C 42.322 470.305 41.362 475.39 42.195 479.615
C 39.525 479.738 36.849 479.456 34.175 479.651
C 34.329 472.615 34.071 465.537 34.055 458.495
C 34.04 451.769 34.301 444.998 34.056 438.282
C 34.15 438.134 34.244 437.987 34.338 437.84 Z
M 42.27 445.334
C 41.788 449.582 42.386 453.923 42.182 458.184
C 42.936 458.706 45.047 458.313 46.006 458.314
C 49.578 458.319 55.533 459.224 58.369 456.52
C 61.514 453.521 60.181 447.458 56.278 445.829
C 52.307 444.172 46.466 445.283 42.27 445.334 Z"
opacity="1" fill="rgb(166,29,35)" fill-rule="evenodd" />
<path d="
M 74.934 455.592
C 77.095 440.293 95.023 432.45 108.025 440.379
C 112.635 443.191 115.39 447.376 117.1 452.374
C 117.997 454.995 118.38 458.187 118 460.94
C 117.486 464.671 116.147 468.149 114.075 471.294
C 107.201 481.727 91.314 483.031 82.091 475.139
C 76.556 470.402 73.923 462.75 74.934 455.592 Z
M 83.373 456.074
C 82.465 460.645 84.087 466.209 87.543 469.379
C 93.036 474.418 102.59 473.81 107.006 467.603
C 108.206 465.917 109.062 463.882 109.49 461.862
C 110.538 456.908 108.672 450.715 104.695 447.459
C 98.685 442.539 89.62 444.213 85.577 450.716
C 84.546 452.375 83.755 454.153 83.373 456.074 Z"
opacity="1" fill="rgb(171,30,36)" fill-rule="evenodd" />
<path d="
M 122.827 437.924
C 129.546 438.089 136.289 437.914 143.011 437.913
C 147.328 437.912 151.763 438.23 156.064 437.872
C 156.507 440.061 156.132 443.162 155.868 445.385
C 153.164 445.163 150.367 445.395 147.653 445.417
C 146.24 445.428 144.66 445.218 143.313 445.72
C 142.739 456.997 143.395 468.364 143.292 479.652
C 140.614 479.514 137.888 479.499 135.209 479.634
C 135.515 471.458 135.076 463.185 135.086 454.998
C 135.09 451.892 134.739 448.477 135.154 445.411
C 131.088 445.351 126.988 445.186 122.925 445.438
C 122.515 444.869 122.645 444.189 122.658 443.51
C 122.691 441.802 122.293 439.536 122.827 437.924 Z"
opacity="1" fill="rgb(174,30,36)" fill-rule="evenodd" />
<path d="
M 163.945 437.83
C 174.295 437.893 184.733 438.121 195.077 437.76
C 195.246 440.19 195.068 442.641 195.041 445.071
C 194.715 445.352 193.837 445.207 193.419 445.209
C 191.946 445.216 190.473 445.226 189 445.236
C 183.361 445.271 177.622 444.968 172.004 445.405
C 171.21 448.253 171.9 451.752 171.686 454.711
C 173.015 455.226 175.074 454.855 176.507 454.866
C 180.007 454.895 183.509 454.87 187.009 454.879
C 188.362 454.883 189.712 454.849 191.064 454.826
C 191.431 454.82 192.103 454.633 192.343 454.933
C 192.341 457.226 192.635 459.65 192.324 461.923
C 185.653 461.497 178.545 461.617 171.872 462.011
C 170.962 464.98 171.928 469.086 171.742 472.199
C 173.395 472.679 175.768 472.236 177.508 472.249
C 181.676 472.279 185.844 472.297 190.012 472.327
C 191.753 472.339 193.794 471.982 195.488 472.335
C 195.258 474.673 195.082 477.346 195.353 479.684
C 185.006 479.217 174.56 479.582 164.206 479.694
C 164.362 465.746 164.085 451.769 163.945 437.83 Z"
opacity="1" fill="rgb(169,28,34)" fill-rule="evenodd" />
<path d="
M 201.872 458.784
C 206.234 458.976 210.644 458.814 215.011 458.786
C 216.325 458.778 218.875 458.187 220.003 458.759
C 219.715 461.256 219.85 463.944 219.893 466.461
C 215.598 466.36 211.298 466.41 207.001 466.427
C 205.621 466.432 203.188 466.867 202.021 466.182
C 201.757 463.725 202.048 461.243 201.872 458.784 Z"
opacity="1" fill="rgb(171,26,32)" fill-rule="evenodd" />
<path d="
M 229.28 437.832
C 233.775 437.917 238.295 437.782 242.795 437.802
C 247.454 437.823 251.834 437.923 255.875 440.563
C 263.437 445.501 263.994 459.054 256.191 464.047
C 250.514 467.681 243.9 466.446 237.569 466.953
C 236.907 469.449 237.248 472.429 237.253 475
C 237.256 476.503 237.019 478.285 237.301 479.751
C 234.652 479.538 231.956 479.861 229.32 479.641
C 229.673 475.484 229.364 471.172 229.353 467
C 229.327 457.284 229.068 447.545 229.28 437.832 Z
M 237.294 445.391
C 236.919 450.132 237.227 454.98 237.193 459.732
C 241.144 459.638 246.4 460.595 250.053 458.715
C 254.822 456.261 254.571 448.441 249.953 445.974
C 246.565 444.164 240.982 445.287 237.294 445.391 Z"
opacity="1" fill="rgb(174,28,34)" fill-rule="evenodd" />
<path d="
M 262.407 479.051
C 266.204 469.423 270.447 459.929 274.703 450.495
C 276.606 446.278 277.989 441.663 280.194 437.603
C 282.484 437.687 284.858 437.743 287.142 437.593
C 287.878 438.476 288.223 439.794 288.706 440.844
C 289.869 443.37 290.929 445.957 292.001 448.522
C 295.008 455.711 298.2 462.819 301.238 469.992
C 302.246 472.372 303.153 474.849 304.281 477.17
C 304.434 477.486 305.52 479.45 305.387 479.623
C 302.807 479.863 299.306 479.79 296.75 479.4
C 295.553 476.442 294.473 473.289 292.978 470.474
C 288.507 470.758 283.982 470.538 279.503 470.552
C 277.914 470.557 275.368 470.123 273.938 470.792
C 272.641 473.708 271.289 476.667 270.215 479.672
C 268.423 479.997 266.227 479.667 264.403 479.691
C 263.884 479.698 262.448 479.888 262.206 479.488
C 262.273 479.342 262.34 479.196 262.407 479.051 Z
M 277.443 462.604
C 277.359 462.818 277.274 463.032 277.19 463.245
C 281.374 463.026 285.965 463.869 290.085 463.089
C 287.941 458.092 286.315 452.324 283.594 447.64
C 282.178 452.703 279.561 457.783 277.443 462.604 Z"
opacity="1" fill="rgb(166,27,36)" fill-rule="evenodd" />
<path d="
M 424.064 344.971
C 425.045 347.334 426.936 349.383 428.365 351.493
C 428.878 352.25 430.099 353.411 429.922 354.371
C 427.752 356.985 423.987 358.994 420.909 360.368
C 420.823 358.219 419.155 355.708 418.149 353.86
C 415.192 348.427 411.399 341.582 406.308 337.877
C 403.14 335.572 397.535 334.617 395.427 339.055
C 394.896 340.174 395.672 341.815 396.109 342.861
C 397.393 345.938 399.216 348.735 400.342 351.891
C 401.946 356.382 403.003 361.229 402.167 365.995
C 401.815 368.003 400.654 369.75 400.329 371.719
C 396.046 373.5 391.909 375.428 387.43 376.775
C 386.042 377.192 385.297 377.862 383.807 378.088
C 384.357 376.829 385.505 375.718 386.226 374.529
C 388.211 371.254 388.824 367.919 387.297 364.296
C 385.409 359.817 382.199 356.29 378.791 352.91
C 373.467 347.63 367.176 341.511 359.01 342.954
C 351.157 344.342 344.521 352.158 339.732 358.04
C 337.735 360.494 335.562 363.745 335.401 367
C 335.175 371.547 337.775 375.24 340.665 378.447
C 338.762 378.667 336.615 377.457 334.916 376.744
C 331.108 375.147 327.333 373.563 323.592 371.816
C 321.894 370.6 321.76 367.39 321.602 365.494
C 321.059 358.998 323.037 352.572 325.851 346.789
C 327.318 343.774 330.503 339.863 326.904 337.096
C 323.615 334.567 319.584 335.674 316.757 338.24
C 312.59 342.02 309.444 347.865 306.81 352.777
C 305.481 355.256 304.107 357.618 303.88 360.477
C 301.379 359.543 299.116 357.55 296.853 356.159
C 296.158 355.733 294.696 355.211 294.306 354.549
C 297.65 348.376 301.275 342.479 304.28 336.101
C 308.432 327.286 311.635 318.668 317.654 310.86
C 323.455 303.336 330.913 298.136 338.953 293.362
C 337.663 292.231 336.506 290.944 335.313 289.7
C 334.836 289.203 334.054 288.587 334.23 287.94
C 347.102 283.242 362.514 283.104 375.911 285.166
C 379.336 285.693 382.731 286.351 386.074 287.255
C 387.333 287.595 388.843 287.816 389.97 288.474
C 388.839 290.185 387.098 291.81 385.649 293.213
C 385.675 294.089 388.359 295.126 389.171 295.649
C 392.688 297.912 396.021 300.203 399.142 303.002
C 403.995 307.354 408.133 312.187 411.472 317.799
C 414.491 322.875 416.637 328.397 419.205 333.698
C 420.534 336.44 421.521 339.339 422.845 342.08
C 423.257 342.931 424.304 344.106 424.064 344.971 Z
M 335.833 326.018
C 334.095 330.657 340.851 334.857 344.255 336.25
C 346.26 337.071 349.041 337.945 350.079 335.322
C 352.005 330.454 346.295 325.248 342.084 324.313
C 340.105 323.873 336.747 323.582 335.833 326.018 Z
M 335.93 341.054
C 333.451 346.602 342.66 350.985 345.421 345.282
C 348.501 338.921 338.815 334.599 335.93 341.054 Z
M 372.451 331.575
C 371.421 335.158 373.872 337.705 377.366 336.568
C 381.379 335.263 386.038 332.199 387.018 327.806
C 387.8 324.302 383.893 323.444 381.252 323.913
C 377.307 324.613 373.573 327.673 372.451 331.575 Z
M 377.923 341.062
C 376.634 344.789 380.795 348.974 384.557 347.688
C 385.993 347.197 387.157 345.478 387.64 344.11
C 389.972 337.507 380.082 334.821 377.923 341.062 Z"
opacity="1" fill="rgb(198,36,40)" fill-rule="evenodd" />
<path d="
M 303.883 286.547
C 305.079 283.54 307.778 283.447 310.399 284.748
C 314.609 286.839 318.394 289.833 321.877 292.959
C 323.158 294.109 324.378 295.317 325.632 296.495
C 326.073 296.909 326.729 297.155 326.393 297.767
C 322.033 300.239 317.83 303.152 313.923 306.291
C 312.613 307.344 311.233 308.322 309.961 309.42
C 309.419 309.888 308.739 310.712 308.06 310.933
C 307.063 306.25 305.627 301.653 304.62 296.962
C 303.904 293.629 303.112 289.936 303.883 286.547 Z"
opacity="1" fill="rgb(20,19,19)" fill-rule="evenodd" />
<path d="
M 323.592 371.816
C 327.333 373.563 331.108 375.147 334.916 376.744
C 336.615 377.457 338.762 378.667 340.665 378.447
C 344.887 380.751 348.595 383.282 353.244 384.805
C 363.454 388.151 373.205 385.116 381.846 379.306
C 381.69 379.666 382.031 380.513 381.956 380.634
C 381.782 380.91 380.774 380.783 380.408 381.205
C 378.814 383.038 377.435 385.056 375.957 386.988
C 370.689 393.877 364.867 400.371 359.194 406.928
C 357.452 408.942 355.648 410.924 353.968 412.99
C 353.302 413.809 352.522 415.343 351.453 415.56
C 347.686 413.956 343.978 411.619 340.387 409.633
C 332.949 405.521 325.488 401.426 318.012 397.383
C 314.797 395.644 311.619 393.831 308.411 392.079
C 307.308 391.477 305.197 390.784 304.491 389.785
C 304.833 386.785 305.919 383.679 306.608 380.727
C 307.832 375.478 308.81 370.165 310.285 364.981
C 315.008 366.498 318.817 370.356 323.592 371.816 Z"
opacity="1" fill="rgb(19,19,19)" fill-rule="evenodd" />
<path d="
M 312.691 437.734
C 314.679 437.812 318.189 437.113 319.958 437.926
C 323.25 443.294 327.761 448.068 331.578 453.074
C 334.642 457.093 337.566 461.588 341.028 465.26
C 341.278 464.932 340.904 463.732 340.875 463.318
C 340.763 461.723 340.809 460.103 340.81 458.504
C 340.813 451.66 340.999 444.798 340.939 437.959
C 342.679 437.705 344.49 437.946 346.248 437.886
C 346.988 437.861 348.224 437.582 348.874 437.939
C 348.686 446.954 348.921 455.985 348.923 465.003
C 348.924 469.67 348.23 474.938 349.004 479.534
C 348.568 479.817 347.677 479.575 347.191 479.532
C 345.69 479.4 344.212 479.525 342.713 479.54
C 340.768 478.253 339.115 474.994 337.62 473.162
C 333.573 468.202 329.755 463.055 325.699 458.103
C 324.38 456.493 323.063 454.835 321.926 453.089
C 321.531 452.481 321.141 451.175 320.459 451.85
C 320.729 458.201 320.443 464.644 320.426 471.005
C 320.419 473.619 319.855 477.031 320.486 479.557
C 318.295 480.154 314.998 479.517 312.678 479.563
C 312.527 470.549 312.576 461.52 312.598 452.502
C 312.61 447.596 312.358 442.628 312.691 437.734 Z"
opacity="1" fill="rgb(168,28,35)" fill-rule="evenodd" />
<path d="
M 335.93 341.054
C 338.815 334.599 348.501 338.921 345.421 345.282
C 342.66 350.985 333.451 346.602 335.93 341.054 Z"
opacity="1" fill="rgb(20,20,20)" fill-rule="evenodd" />
<path d="
M 346.73 372.595
C 348.285 373.304 349.487 374.564 351.014 375.326
C 354.22 376.925 360.442 375.977 360.872 371.587
C 359.33 371.009 357.808 369.851 356.431 368.949
C 355.63 368.424 354.809 367.822 354.223 367.052
C 352.143 364.321 353.751 361.164 356.341 359.465
C 359.988 357.073 365.565 357.519 368.544 360.765
C 369.685 362.008 370.639 363.653 370.24 365.397
C 369.437 368.905 364.731 369.153 363.232 371.913
C 364.599 375.485 368.858 376.731 372.285 375.419
C 373.925 374.792 375.137 373.416 376.677 372.608
C 377.237 374.391 375.58 375.64 374.209 376.513
C 370.083 379.139 366.547 377.985 362.453 376.232
C 360.715 376.566 359.279 377.814 357.547 378.223
C 353.751 379.118 347.046 377.313 346.73 372.595 Z"
opacity="1" fill="rgb(16,16,15)" fill-rule="evenodd" />
<path d="
M 351.453 415.56
C 352.522 415.343 353.302 413.809 353.968 412.99
C 355.648 410.924 357.452 408.942 359.194 406.928
C 364.867 400.371 370.689 393.877 375.957 386.988
C 377.435 385.056 378.814 383.038 380.408 381.205
C 380.774 380.783 381.782 380.91 381.956 380.634
C 382.031 380.513 381.69 379.666 381.846 379.306
C 382.51 378.864 383.045 378.349 383.807 378.088
C 385.297 377.862 386.042 377.192 387.43 376.775
C 391.909 375.428 396.046 373.5 400.329 371.719
C 401.487 371.415 402.576 370.594 403.649 370.057
C 407.45 368.154 411.327 365.721 415.24 364.129
C 414.465 365.948 415.457 368.311 415.905 370.151
C 417.026 374.76 418.006 379.37 418.862 384.036
C 419.154 385.628 419.647 387.155 419.977 388.732
C 420.086 389.253 420.269 389.881 419.868 390.266
C 414.143 392.716 408.731 396.099 403.227 399.005
C 394.812 403.449 386.321 407.754 377.971 412.322
C 374.113 414.433 370.259 416.556 366.384 418.633
C 364.908 419.424 363.243 420.654 361.629 421.086
C 359.236 420.332 356.914 418.421 354.684 417.242
C 353.683 416.712 352.255 416.361 351.453 415.56 Z"
opacity="1" fill="rgb(100,17,19)" fill-rule="evenodd" />
<path d="
M 361.46 453.122
C 362.028 448.293 361.731 442.901 361.529 438.045
C 362.433 437.654 363.655 437.865 364.63 437.856
C 366.756 437.837 368.884 437.826 371.01 437.826
C 376.959 437.827 383.167 437.682 388.537 440.665
C 399.729 446.883 403.093 462.952 393.96 472.583
C 385.253 481.764 373.114 478.705 361.956 479.494
C 360.883 477.906 361.57 474.47 361.533 472.553
C 361.412 466.113 361.192 459.552 361.46 453.122 Z
M 369.448 446.035
C 369.172 451.67 369.438 457.363 369.437 463.005
C 369.436 465.868 368.921 469.369 369.638 472.144
C 375.017 472.02 380.882 473.025 385.556 469.712
C 392.463 464.815 392.623 452.72 385.641 447.781
C 381.127 444.588 374.822 445.08 369.567 445.537
C 369.528 445.703 369.488 445.869 369.448 446.035 Z"
opacity="1" fill="rgb(166,29,34)" fill-rule="evenodd" />
<path d="
M 377.923 341.062
C 380.082 334.821 389.972 337.507 387.64 344.11
C 387.157 345.478 385.993 347.197 384.557 347.688
C 380.795 348.974 376.634 344.789 377.923 341.062 Z"
opacity="1" fill="rgb(18,18,20)" fill-rule="evenodd" />
<path d="
M 397.442 296.958
C 401.912 292.988 405.834 288.853 411.157 285.961
C 413.159 284.873 415.63 283.294 418.027 283.757
C 421.058 284.342 420.899 288.159 420.745 290.484
C 420.421 295.354 418.917 300.379 417.574 305.055
C 417.036 306.925 416.838 309.348 415.909 311.036
C 414.091 308.946 411.45 307.353 409.234 305.724
C 405.275 302.814 401.142 300.173 396.995 297.548
C 397.144 297.351 397.293 297.155 397.442 296.958 Z"
opacity="1" fill="rgb(20,20,20)" fill-rule="evenodd" />
<path d="
M 403.455 479.157
C 406.418 473.699 408.603 467.643 411.044 461.932
C 414.495 453.855 418.142 445.82 421.287 437.619
C 423.641 437.571 426.128 437.773 428.461 437.474
C 429.33 438.278 429.628 439.808 430.12 440.878
C 431.351 443.554 432.504 446.26 433.685 448.958
C 436.628 455.677 439.586 462.408 442.452 469.158
C 443.901 472.572 445.052 476.406 446.982 479.574
C 446.723 479.911 445.036 479.59 444.647 479.581
C 442.943 479.54 439.749 479.993 438.255 479.337
C 436.961 476.392 435.819 473.39 434.481 470.468
C 428.125 470.219 421.738 470.34 415.376 470.285
C 413.834 473.111 412.693 476.472 411.604 479.505
C 408.833 479.687 406.001 479.423 403.22 479.594
C 403.298 479.449 403.376 479.303 403.455 479.157 Z
M 418.9 462.058
C 418.812 462.284 418.724 462.511 418.637 462.737
C 422.656 463.492 427.439 463.193 431.507 463.024
C 428.99 458.039 427.211 452.712 424.922 447.626
C 423.326 452.477 421.204 457.501 418.9 462.058 Z"
opacity="1" fill="rgb(160,26,33)" fill-rule="evenodd" />
<path d="
M 415.24 364.129
C 416.866 362.589 419.123 361.722 420.909 360.368
C 423.987 358.994 427.752 356.985 429.922 354.371
C 430.099 353.411 428.878 352.25 428.365 351.493
C 426.936 349.383 425.045 347.334 424.064 344.971
C 425.403 343.118 426.327 340.763 426.711 338.5
C 426.756 338.238 426.92 336.384 427.151 336.31
C 427.338 336.25 429.398 336.954 429.829 337.061
C 432.423 337.702 434.946 338.659 437.52 339.289
C 437.531 338.696 436.905 337.934 436.663 337.388
C 435.877 335.616 435.272 333.795 434.451 332.029
C 435.803 331.962 436.553 332.992 437.39 333.934
C 439.497 336.306 441.702 338.904 443.593 341.435
C 441.773 340.432 442.085 343.891 441.99 345.215
C 441.634 350.175 440.986 355.085 440.489 360.03
C 440.395 360.964 440.22 362.089 440.573 362.992
C 440.815 363.611 441.723 363.72 441.423 364.439
C 440.257 366.303 438.538 367.867 437.133 369.552
C 433.603 373.785 430.128 378.066 426.628 382.324
C 424.729 384.633 422.527 388.913 419.868 390.266
C 420.269 389.881 420.086 389.253 419.977 388.732
C 419.647 387.155 419.154 385.628 418.862 384.036
C 418.006 379.37 417.026 374.76 415.905 370.151
C 415.457 368.311 414.465 365.948 415.24 364.129 Z"
opacity="1" fill="rgb(148,24,31)" fill-rule="evenodd" />
<path d="
M 432.318 302.469
C 435.719 306.476 439.595 310.106 443.059 314.07
C 444.992 316.283 447.32 319.664 449.898 321.089
C 450.67 322.338 451.977 323.333 452.973 324.409
C 455.71 327.364 458.563 330.259 461.198 333.305
C 462.137 334.391 464.232 335.474 464.868 336.68
C 464.904 336.747 464.431 337.254 464.356 337.361
C 460.648 341.901 456.772 346.555 452.831 350.886
C 452.169 351.209 450.634 349.312 450.166 348.839
C 447.844 346.49 445.796 343.887 443.593 341.435
C 441.702 338.904 439.497 336.306 437.39 333.934
C 436.553 332.992 435.803 331.962 434.451 332.029
C 433.659 330.234 432.122 328.647 430.906 327.123
C 433.049 326.636 435.313 326.837 437.497 326.765
C 437.894 326.752 439.797 326.922 439.9 326.686
C 436.644 323.099 432.362 320.083 428.319 317.435
C 428.42 315.338 429.748 312.823 430.296 310.762
C 430.977 308.203 430.969 304.725 432.318 302.469 Z"
opacity="1" fill="rgb(20,20,20)" fill-rule="evenodd" />
<path d="
M 440.824 284.366
C 443.6 287.018 446.385 289.688 448.967 292.541
C 450.29 294.003 451.469 295.777 452.982 297.037
C 453.111 297.308 453.265 297.549 453.411 297.81
C 452.105 299.236 451.698 301.287 451.131 303.081
C 449.479 308.313 448.327 315.759 449.898 321.089
C 447.32 319.664 444.992 316.283 443.059 314.07
C 439.595 310.106 435.719 306.476 432.318 302.469
C 432.379 302.644 432.218 302.185 432.216 302.018
C 432.21 301.539 432.487 301.075 432.667 300.65
C 433.251 299.269 433.735 297.835 434.274 296.435
C 435.756 292.59 437.847 287.293 440.824 284.366 Z"
opacity="1" fill="rgb(166,29,36)" fill-rule="evenodd" />
<path d="
M 443.593 341.435
C 445.796 343.887 447.844 346.49 450.166 348.839
C 450.634 349.312 452.169 351.209 452.831 350.886
C 448.96 355.305 445.509 360.222 441.423 364.439
C 441.723 363.72 440.815 363.611 440.573 362.992
C 440.22 362.089 440.395 360.964 440.489 360.03
C 440.986 355.085 441.634 350.175 441.99 345.215
C 442.085 343.891 441.773 340.432 443.593 341.435 Z"
opacity="1" fill="rgb(180,29,38)" fill-rule="evenodd" />
<path d="
M 454.837 272.757
C 455.763 274.392 457.426 275.447 458.514 276.965
C 458.318 278.731 457.418 280.283 456.935 281.991
C 456.004 285.286 455.111 288.622 454.254 291.935
C 453.944 293.135 453.839 296.325 452.982 297.037
C 451.469 295.777 450.29 294.003 448.967 292.541
C 446.385 289.688 443.6 287.018 440.824 284.366
C 441.449 283.074 442.526 282.048 443.489 281.003
C 446.43 277.812 450.687 274.218 454.837 272.757 Z"
opacity="1" fill="rgb(20,19,18)" fill-rule="evenodd" />
<path d="
M 453.411 297.81
C 455.51 299.088 457.301 301.554 459.016 303.315
C 463.153 307.564 467.119 311.986 471.323 316.169
C 472.703 317.543 474.037 318.977 475.473 320.292
C 476.142 320.905 476.971 321.531 477.021 322.481
C 472.193 326.812 468.776 332.661 464.356 337.361
C 464.431 337.254 464.904 336.747 464.868 336.68
C 464.232 335.474 462.137 334.391 461.198 333.305
C 458.563 330.259 455.71 327.364 452.973 324.409
C 451.977 323.333 450.67 322.338 449.898 321.089
C 448.327 315.759 449.479 308.313 451.131 303.081
C 451.698 301.287 452.105 299.236 453.411 297.81 Z"
opacity="1" fill="rgb(194,33,35)" fill-rule="evenodd" />
<path d="
M 452.229 458.768
C 456.65 458.864 461.085 458.765 465.509 458.774
C 466.434 458.776 469.318 458.286 469.955 458.863
C 469.811 461.321 470.055 463.804 469.889 466.258
C 464.11 466.215 458.224 465.962 452.46 466.406
C 452.042 465.807 452.214 464.781 452.212 464.054
C 452.208 462.308 451.993 460.499 452.229 458.768 Z"
opacity="1" fill="rgb(22,21,22)" fill-rule="evenodd" />
<path d="
M 452.982 297.037
C 453.839 296.325 453.944 293.135 454.254 291.935
C 455.111 288.622 456.004 285.286 456.935 281.991
C 457.418 280.283 458.318 278.731 458.514 276.965
C 462.221 279.664 465.231 283.856 468.358 287.193
C 472.785 291.919 477.417 296.428 481.97 301.034
C 483.821 302.907 485.608 304.851 487.482 306.7
C 488 307.212 489.336 308.097 488.824 308.851
C 485.261 313.631 480.488 317.596 477.021 322.481
C 476.971 321.531 476.142 320.905 475.473 320.292
C 474.037 318.977 472.703 317.543 471.323 316.169
C 467.119 311.986 463.153 307.564 459.016 303.315
C 457.301 301.554 455.51 299.088 453.411 297.81
C 453.265 297.549 453.111 297.308 452.982 297.037 Z"
opacity="1" fill="rgb(25,23,22)" fill-rule="evenodd" />
<path d="
M 454.837 272.757
C 456.587 272.31 458.234 271.18 459.987 270.644
C 464.421 269.287 469.169 268.59 473.806 268.778
C 484.421 269.209 498.687 273.818 499.35 286.451
C 499.449 288.33 499.356 290.198 498.947 292.036
C 498.436 294.325 497.627 296.517 496.449 298.551
C 494.351 302.175 491.643 305.756 488.824 308.851
C 489.336 308.097 488 307.212 487.482 306.7
C 485.608 304.851 483.821 302.907 481.97 301.034
C 477.417 296.428 472.785 291.919 468.358 287.193
C 465.231 283.856 462.221 279.664 458.514 276.965
C 457.426 275.447 455.763 274.392 454.837 272.757 Z"
opacity="1" fill="rgb(215,39,42)" fill-rule="evenodd" />
<path d="
M 479.869 437.936
C 479.928 437.789 479.988 437.642 480.047 437.495
C 482.58 437.519 485.246 437.737 487.765 437.512
C 487.602 444.199 487.783 450.907 487.69 457.596
C 488.087 458.233 488.47 457.397 488.859 457.001
C 490.046 455.79 491.147 454.474 492.278 453.209
C 495.388 449.73 498.637 446.385 501.8 442.955
C 503.273 441.357 504.461 439.348 506.054 437.893
C 508.983 437.461 513.056 437.498 515.995 437.836
C 515.356 439.297 513.533 440.59 512.444 441.76
C 509.58 444.832 506.692 447.888 503.792 450.926
C 502.659 452.112 500.135 453.904 499.719 455.459
C 503.754 460.532 507.528 465.915 511.213 471.249
C 513.063 473.926 514.741 477.307 517.129 479.529
C 516.351 479.755 515.462 479.352 514.641 479.408
C 512.378 479.561 510.043 479.543 507.779 479.561
C 506.549 478.835 505.563 476.603 504.676 475.436
C 502.229 472.218 499.721 469.042 497.418 465.718
C 496.782 464.798 495.003 461.234 494.004 461.215
C 492.426 463.226 490.599 465.062 488.887 466.965
C 486.81 469.132 487.767 473.681 487.766 476.537
C 487.766 477.415 487.505 478.86 487.795 479.651
C 485.137 479.838 482.432 479.446 479.753 479.613
C 480.052 465.745 479.183 451.798 479.869 437.936 Z"
opacity="1" fill="rgb(19,19,19)" fill-rule="evenodd" />
<path d="
M 524.273 437.774
C 526.786 437.778 529.513 437.457 532.002 437.832
C 531.701 444.84 532.164 451.98 532.207 459.001
C 532.232 463.159 531.622 467.889 532.354 471.977
C 537.143 471.466 542.193 471.898 547.008 471.906
C 548.908 471.909 551.891 471.353 553.639 472.112
C 553.691 474.534 553.392 477.068 553.598 479.471
C 547.437 479.842 541.18 479.55 535.005 479.541
C 531.65 479.536 527.819 480.062 524.531 479.385
C 523.482 465.646 524.23 451.552 524.273 437.774 Z"
opacity="1" fill="rgb(21,21,21)" fill-rule="evenodd" />
<path d="
M 556.379 479.171
C 560.782 469.215 564.879 459.113 569.302 449.155
C 570.954 445.436 572.065 441.056 574.183 437.603
C 576.162 437.536 579.663 436.823 581.474 437.599
C 585.228 446.979 589.294 456.233 593.241 465.535
C 595.154 470.043 597.796 474.73 599.031 479.466
C 596.478 479.273 593.553 479.207 591.012 479.488
C 590.292 479.001 590.1 477.774 589.796 476.962
C 588.963 474.729 587.844 472.537 587.126 470.275
C 580.721 470.178 574.292 470.16 567.887 470.204
C 566.598 473.171 565.286 476.254 564.225 479.312
C 563.516 479.632 562.401 479.339 561.625 479.336
C 559.82 479.33 557.988 479.3 556.207 479.583
C 556.265 479.446 556.322 479.309 556.379 479.171 Z
M 571.927 461.542
C 571.671 462.174 571.812 461.806 571.516 462.649
C 575.273 463.575 580.07 462.724 583.951 462.8
C 583.819 461.575 582.738 460.02 582.224 458.857
C 581.326 456.827 580.644 454.699 579.83 452.635
C 579.308 451.311 578.848 449.946 578.223 448.668
C 578.033 448.279 578.042 447.698 577.657 447.498
C 577.426 447.377 577.489 447.993 577.405 448.241
C 575.816 452.725 573.772 457.155 571.927 461.542 Z"
opacity="1" fill="rgb(20,20,21)" fill-rule="evenodd" />
<path d="
M 603.357 473.557
C 605.116 472.007 606.379 469.857 607.959 468.124
C 608.929 468.271 609.687 469.219 610.504 469.76
C 612.11 470.822 613.746 471.753 615.603 472.304
C 618.435 473.145 621.895 473.461 624.612 472.057
C 627.06 470.793 627.787 467.521 625.84 465.439
C 624.089 463.566 620.993 462.971 618.608 462.352
C 613.703 461.081 607.961 459.303 605.82 454.231
C 602.651 446.722 607.824 438.837 615.451 437.497
C 622.321 436.289 628.519 438.663 634.146 442.326
C 632.932 444.288 631.473 446.743 629.931 448.443
C 627.607 447.886 625.467 445.938 623.09 445.211
C 620.811 444.514 617.645 444.092 615.4 445.114
C 612.753 446.318 612.013 449.736 614.089 451.827
C 615.638 453.387 617.982 453.716 620.001 454.343
C 625.037 455.905 631.733 457.059 634.093 462.51
C 634.666 463.832 635.067 465.274 635.189 466.712
C 636.008 476.403 626.416 480.824 618.019 480.163
C 614.377 479.876 610.73 478.793 607.565 476.966
C 606.039 476.084 604.796 474.753 603.258 473.938
C 603.291 473.811 603.324 473.684 603.357 473.557 Z"
opacity="1" fill="rgb(21,20,20)" fill-rule="evenodd" />
<path d="
M 641.859 473.029
C 643.485 471.451 645.002 469.71 646.564 468.072
C 647.588 467.721 649.865 470.362 650.875 470.964
C 654.431 473.083 662.993 474.915 665.007 469.743
C 666.666 465.484 661.126 463.457 658.122 462.608
C 652.217 460.939 644.674 459.495 643.283 452.366
C 643.019 451.015 643.043 449.617 643.166 448.254
C 644.174 437.031 657.271 435.564 665.807 438.76
C 667.848 439.525 670.681 440.645 672.154 442.31
C 670.799 444.451 669.174 446.404 668.184 448.771
C 667.499 447.939 666.148 447.411 665.221 446.899
C 662.201 445.234 658.905 444.289 655.447 444.571
C 652.583 444.805 650.283 447.087 651.256 450.07
C 652.2 452.962 655.526 453.518 658.08 454.213
C 662.902 455.524 669.244 456.867 671.929 461.57
C 674.778 466.558 673.463 473.33 669.052 476.955
C 666.767 478.832 663.732 479.736 660.84 480.069
C 655.481 480.685 650.061 479.254 645.48 476.475
C 644.109 475.643 643.093 474.419 641.782 473.548
C 641.808 473.375 641.833 473.202 641.859 473.029 Z"
opacity="1" fill="rgb(20,19,19)" fill-rule="evenodd" />
<path d="
M 682.748 437.807
C 692.964 437.737 703.427 438.468 713.614 437.718
C 714.227 440.066 713.452 442.781 713.715 445.179
C 706.266 444.484 698.274 445.153 690.786 445.257
C 690.169 446.355 690.501 447.945 690.561 449.163
C 690.655 451.059 690.491 452.973 690.536 454.868
C 697.269 454.435 704.077 455.17 710.813 454.673
C 710.697 456.496 710.805 458.337 710.798 460.162
C 710.796 460.585 710.941 461.675 710.583 461.911
C 703.939 461.587 697.206 461.967 690.564 462.124
C 689.771 465.176 690.828 469.052 690.601 472.222
C 698.239 471.481 706.46 471.9 714.128 472.17
C 713.894 474.633 714.049 477.203 714.184 479.664
C 710.31 478.999 706.063 479.573 702.146 479.545
C 695.795 479.501 689.216 478.953 682.889 479.518
C 682.425 478.152 682.679 476.436 682.669 475.003
C 682.649 472.17 682.652 469.336 682.653 466.503
C 682.656 460.336 682.694 454.169 682.678 448.003
C 682.67 444.686 682.191 441.081 682.748 437.807 Z"
opacity="1" fill="rgb(19,19,20)" fill-rule="evenodd" />

</svg>